<svg xmlns="http://www.w3.org/2000/svg" xmlns:xlink="http://www.w3.org/1999/xlink" viewBox="0 0 965 983.85"><defs><style>.cls-1{fill:none;}.cls-2{fill:#ffc40e;}.cls-3{clip-path:url(#clip-path);}.cls-4{fill:#ee1b88;}.cls-5{fill:#70a8d5;}.cls-6{fill:#fcff00;stroke-width:7.83px;}.cls-14,.cls-6,.cls-7{stroke:#000;stroke-miterlimit:10;}.cls-14,.cls-7{fill:#fcffa3;}.cls-7{stroke-width:5.2px;}.cls-8{fill:url(#linear-gradient);}.cls-9{fill:url(#linear-gradient-2);}.cls-10{fill:url(#linear-gradient-3);}.cls-11{fill:url(#linear-gradient-4);}.cls-12{fill:url(#linear-gradient-5);}.cls-13{fill:#fff;stroke:#fff;stroke-linecap:round;stroke-linejoin:round;stroke-width:7.3px;}.cls-14{stroke-width:7.77px;}</style><clipPath id="clip-path"><path class="cls-1" d="M277.58,110.4C299.35,123.48,373,91.86,397.79,74.17l51.39,4.24c17.67,41.83,103.38,29.47,124.28,17.82l44.81,25.51c20.4,47.13,85.16,68.34,105.19,68.54l29.88,42s-7.69,50,8.52,68.39,30.58,39.45,58,38.1l9.38,50.71c-16.57,20.34-27.19,97,15.4,124.6L831.76,564s-.74-7.22-22.35,10.07-24.84,97.8-16.2,109.41l-32.72,39.86c-55.9-13.11-82.92,64.69-85.08,85.23l-46.72,29.22s-26.76-10.85-49.46-5.45-55.66,21.71-66.73,53l-51.57.68c-26.5-35.31-109.76-25-125.41-5.86L268,850.44c-8.66-42.91-48.2-79.13-107.86-64.26l-54-68c12.75-39.2-29.91-103.54-61-109.73l-10-70.87c29.69-21.78,16.4-106-3.43-125.5-2.55-6.5,17.57-48.48,17.57-48.48C121,360.14,116,281.26,99.09,248.3l36.37-36.56c52.58,12.24,96-58.25,93.73-83.52Z"/></clipPath><linearGradient id="linear-gradient" x1="225.16" y1="210.82" x2="372.79" y2="210.82" gradientUnits="userSpaceOnUse"><stop offset="0" stop-color="#fff"/><stop offset="0.14" stop-color="#fff" stop-opacity="0.99"/><stop offset="0.27" stop-color="#fff" stop-opacity="0.94"/><stop offset="0.39" stop-color="#fff" stop-opacity="0.87"/><stop offset="0.51" stop-color="#fff" stop-opacity="0.77"/><stop offset="0.63" stop-color="#fff" stop-opacity="0.64"/><stop offset="0.74" stop-color="#fff" stop-opacity="0.48"/><stop offset="0.85" stop-color="#fff" stop-opacity="0.3"/><stop offset="0.96" stop-color="#fff" stop-opacity="0.08"/><stop offset="1" stop-color="#fff" stop-opacity="0"/></linearGradient><linearGradient id="linear-gradient-2" x1="-1544.45" y1="4608.47" x2="-1431.12" y2="4608.47" gradientTransform="translate(5323 -439.2) rotate(63.82)" xlink:href="#linear-gradient"/><linearGradient id="linear-gradient-3" x1="3981.52" y1="8016.56" x2="4094.84" y2="8016.56" gradientTransform="translate(7544.27 6489.29) rotate(157.19)" xlink:href="#linear-gradient"/><linearGradient id="linear-gradient-4" x1="7554.42" y1="2662.96" x2="7667.75" y2="2662.96" gradientTransform="translate(1067.17 8793.46) rotate(-114.73)" xlink:href="#linear-gradient"/><linearGradient id="linear-gradient-5" x1="5489.62" y1="-531.14" x2="5628.81" y2="-531.14" gradientTransform="matrix(0.39, -0.92, 0.92, 0.39, -1488.05, 5915.61)" xlink:href="#linear-gradient"/></defs><title>Asset 13</title><g id="Layer_2" data-name="Layer 2"><g id="Layer_1-2" data-name="Layer 1"><circle class="cls-2" cx="433.41" cy="479.1" r="356.86"/><path class="cls-1" d="M210.52,152.44c41.55-16.85,173.64-22.35,209.74-34.39s13.75-20.63,73.93-3.44,110,13.76,142.69,48.14,25.78,55,56.73,72.21,86,104.87,103.15,132.37S812.23,561.6,795,602.86s-37.65,30.77-36.1,75.64-63.61,91.12-89.4,108.31-51.57,27.51-89.4,36.11-80.8,8.59-103.15,18.91-39.54,12-65.33,10.31S298.2,871.05,274.13,833.23s-49.86-51.57-72.2-58.45S85,692.26,81.58,661.31,64.39,578.79,61,566.76s-25.79-141-12-166.76S67.83,345,85,319.2,146.91,178.22,210.52,152.44Z"/><g class="cls-3"><polygon class="cls-4" points="402.08 461.64 31.73 412.03 35.16 537.53 400.36 494.3 402.08 461.64"/><polygon class="cls-4" points="414.02 449.4 99.09 248.3 49.3 363.55 398.69 478.29 414.02 449.4"/><polygon class="cls-4" points="430 443.33 229.19 128.22 135.46 211.75 403.92 463.07 430 443.33"/><polygon class="cls-4" points="447.05 444.57 397.79 74.17 277.58 110.4 415.08 451.47 447.05 444.57"/><polygon class="cls-4" points="462 452.88 573.46 96.23 449.18 78.41 430.09 445.66 462 452.88"/><polygon class="cls-4" points="472.05 466.71 723.46 190.28 618.27 121.74 446.15 446.72 472.05 466.71"/><polygon class="cls-4" points="475.33 483.49 819.84 338.8 753.34 232.31 460.27 454.45 475.33 483.49"/><polygon class="cls-4" points="471.23 500.09 844.62 514.11 829.22 389.51 469.82 467.41 471.23 500.09"/><polygon class="cls-4" points="460.51 513.41 793.21 683.52 831.76 564.04 473.01 483.19 460.51 513.41"/><polygon class="cls-4" points="445.18 520.98 675.16 815.48 760.49 723.38 469.26 498.84 445.18 520.98"/><polygon class="cls-4" points="428.09 521.38 512.5 885.38 628.69 837.83 459.25 511.45 428.09 521.38"/><polygon class="cls-4" points="412.42 514.53 335.52 880.2 460.93 886.06 444.87 518.67 412.42 514.53"/><polygon class="cls-4" points="400.27 499.87 160.16 786.18 268.02 850.44 426.94 518.81 400.27 499.87"/><polygon class="cls-4" points="396.55 481.4 45.14 608.4 106.13 718.13 410.11 511.17 396.55 481.4"/><path class="cls-5" d="M379,972.48,408.23,737s-3.44,240.68-3.44,245.84S379,972.48,379,972.48Z"/><path class="cls-5" d="M147.06,884.33,290.3,695.1S166.79,901.71,164.21,906.17,147.06,884.33,147.06,884.33Z"/><path class="cls-5" d="M45.45,666.08,264.21,574S53.84,691,49.36,693.58,45.45,666.08,45.45,666.08Z"/><path class="cls-5" d="M11.43,452,246.88,481.9S6.21,477.79,1.05,477.78,11.43,452,11.43,452Z"/><path class="cls-5" d="M68.51,288.3l204.75,120S53.57,309.94,48.84,307.9,68.51,288.3,68.51,288.3Z"/><path class="cls-5" d="M178.8,148.45,326,334.64S157,163.19,153.35,159.57,178.8,148.45,178.8,148.45Z"/><path class="cls-5" d="M314.57,9.73l62,229.08S288.74,14.7,286.79,9.93,314.57,9.73,314.57,9.73Z"/><path class="cls-5" d="M540.85,81.28,472.32,308.5s44-236.65,44.85-241.74S540.85,81.28,540.85,81.28Z"/><path class="cls-5" d="M728,85.39,583.71,273.83S708.35,67.9,711,63.45,728,85.39,728,85.39Z"/><path class="cls-5" d="M889.6,252.15,670.34,343s211-115.82,215.5-118.37S889.6,252.15,889.6,252.15Z"/><path class="cls-5" d="M955.37,472.63l-237-12.54s240.33-13.55,245.48-13.91S955.37,472.63,955.37,472.63Z"/><path class="cls-5" d="M801.68,839.94,622.58,684.21s197.77,137.21,202,140.09S801.68,839.94,801.68,839.94Z"/><path class="cls-5" d="M915.69,694.05,706.84,581.32s223,90.58,227.82,92.45S915.69,694.05,915.69,694.05Z"/><path class="cls-5" d="M614.68,956.7,534.39,733.36s105.63,216.3,108,220.9S614.68,956.7,614.68,956.7Z"/></g><polygon class="cls-6" points="229.89 782.27 252.25 841.14 315.04 836.33 266.07 877.52 288.44 936.39 235.81 902.98 186.85 944.17 203.29 882.33 150.66 848.92 213.45 844.11 229.89 782.27"/><polygon class="cls-7" points="124.73 578.87 105.1 615.82 134.99 645.09 92.98 638.65 73.36 675.6 67.01 634.68 24.99 628.24 63.09 609.38 56.74 568.46 86.63 597.73 124.73 578.87"/><polygon class="cls-8" points="225.16 146.18 325.96 302.86 372.79 290.32 292 119.88 249.27 118.79 225.16 146.18"/><polygon class="cls-6" points="313.72 140.78 252.76 124.98 220.37 178.98 215.08 115.22 154.13 99.42 211.82 75.81 206.53 12.04 247.47 61.21 305.17 37.6 272.78 91.6 313.72 140.78"/><path class="cls-9" d="M541.81,190,481.12,320.56a4,4,0,0,0,6.43,4.27l21.39,7.61L593.47,225.8l-16.05-38.63Z"/><path class="cls-10" d="M781.82,680.14,655.05,611.89a4,4,0,0,0-4.64,6.17L641.56,639l101.49,90.65,39.51-13.76Z"/><path class="cls-11" d="M289.29,834.57l64-129a4,4,0,0,0-6.32-4.43L325.74,693l-87.2,104.48,15.07,39Z"/><polygon class="cls-12" points="264.13 544.92 129.45 579.42 110.74 616.84 136.2 641.91 271.44 558.43 264.13 544.92"/><polygon class="cls-7" points="593.47 225.8 577.42 187.17 535.83 191.64 567.5 163.29 551.45 124.66 587.08 145.77 618.75 117.42 609.1 158.82 644.72 179.93 603.13 184.4 593.47 225.8"/><path class="cls-2" d="M437.49,141.59c-12.83,154.86,85.82,160,217.55,71.18-72.39,115.28-94.87,156.48,100.3,158.73-115.56,69.34-110.3,168.17,19,229.92-170.84-68.7-205.25-17.6-102.07,109.93-122-95.16-199.79-14.48-133.38,75.57-136.88-116.11-213.48-115.4-236.43-69,27.75-114.15-22.93-125.38-120.9-91.13,87.53-45.7,58-131-55.2-149.33C268.72,463,270.29,334.68,179.88,271.28,296.79,312.21,385,321.64,437.49,141.59Z"/><path d="M437.49,141.59c-12.83,154.86,85.82,160,217.55,71.18-72.39,115.28-94.87,156.48,100.3,158.73-115.56,69.34-110.3,168.17,19,229.92-170.84-68.7-205.25-17.6-102.07,109.93-122-95.16-199.79-14.48-133.38,75.57-136.88-116.11-213.48-115.4-236.43-69,27.75-114.15-22.93-125.38-120.9-91.13,87.53-45.7,58-131-55.2-149.33C268.72,463,270.29,334.68,179.88,271.28,296.79,312.21,385,321.64,437.49,141.59Zm199.84,536C621.09,654,592.57,612.83,607,584.14c17.39-34.66,72.64-21.43,103.78-12.73-73.23-59.61-55.08-141.06,16-191.78-36.09-1.12-96.09.47-122.7-27.27-30.55-31.83,6.49-82.9,24.07-111.72-77.55,45.95-187.65,66.15-198-47-37.31,93.05-108.89,130.06-214,98.66,60.41,64.7,43.3,161-49.53,185.85,58.28,18.86,105.76,76,57.6,127,71.07-16.75,103.62,19,94.06,82.48,59.29-38.56,150.85,30.21,194.39,63.87C480.55,668.41,568.15,639.73,637.33,677.62Z"/><path class="cls-13" d="M405.16,662.74c25.09,12.9,20.71.85,38.24,32.63l47.05,17.77s-2.75-13.64,10.71-14.61c2,5.92,32.86,3.65,45.28-47.23,5.42-22.22,27.75-43.58,36.27-40.41,11.44,4.24,10.23,42.84-15.09,64.51,21.91-12.66,34.57-28.24,38.25-105.44.67-14.26,4.2-46.57,18-45,14.15,1.59,21.67,33.35-.55,60.5,20.47-16.45,32.93-40.28,23.8-59.29-4.56-9.48-56.24-60.62-33.47-73.15,23.17-12.76,50.63,25.68,45.52,66.7,3.64-14.53,9.55-45.08-6.53-64.46-12.87-15.51-52.37-36.1-52.37-36.1-25.8-17.51,24.89-10.14,52.21,5.72-.06-12.53.45-35.66-22.39-54-24.82-20-92.57-14.29-95.87-27.74-6.33-25.8,64-32,68.62-.68a30.27,30.27,0,0,0-10.46-31.12c-11-8.48-26.2-8.18-40.08-7.5l-59.56,2.95c-4.55.23-9.18.44-13.61-.65s-8.68-3.73-10.66-7.84c-3-6.26.37-14.19,6.07-18.15s13.05-4.69,20-4.3,13.81,1.8,20.75,1.6l1.15-1.21c-1.37-.84-2.53-1.56-3.7-2.26a10.18,10.18,0,0,0-1.14-.58c-12.7-5.62-25.55-10.67-39.6-11.82-7.44-.6-14.94-1-22.15.9-14.76,4-26.46,12.84-35.92,24.63-2.95,3.68-5.08,8-7.46,11.86-.24-4.57-.17-9.44,2.71-13.87-5.21,2.33-11.19,2.47-15.49,6.64a20.65,20.65,0,0,1,7-11.08c-4.19,1.13-7.78,2.2-11.43,3.05A27,27,0,0,0,372.2,295.3c-4.68,7.06-6.12,14.79-3.18,22.92a56.09,56.09,0,0,0,3.81,7.23c-4.43-1.8-9.19-3.58-13.82-5.66a6.58,6.58,0,0,1-4-6.44c0-1.93.32-3.85.48-5.71-1.81,2.27-3.8,4.48-5.44,6.93a19.63,19.63,0,0,0-2.66,5.72,16.78,16.78,0,0,0,1.88,13.56l-2-.31c-6.86-1.12-13.11.28-17.9,5.44-5.34,5.73-7.19,6.93-6.76,12.18L178.56,298a2,2,0,0,0-1.75,3.58l141.74,88.32-5.5,4.77c-12.52,10.8-24.91,21.75-37.43,32.55A253.61,253.61,0,0,0,251,452.1c-4.41,5-9,9.92-13.75,14.58-4.57,4.44-9.52,8.5-14.31,12.71s-8.53,9.15-8.86,15.77a148,148,0,0,0,.15,15.48c.24,4.47,2.14,8.76,1.58,13.35-.28,2.29-.34,4.61-.66,6.9-1,7,1.91,12.15,7.5,16.05a5.83,5.83,0,0,0,6.37.57,2.18,2.18,0,0,1,2.75.29c4,3.13,8.34,5,13.51,2.67,2.14-.93,4.39-.55,6.59.16s4.31,1.3,6.48,1.85c6,1.52,9.6.1,12.51-5.26a78.92,78.92,0,0,1,10-13.88,27.23,27.23,0,0,1,13.27-8.57,365.49,365.49,0,0,0,38.55-13.83c6.43-2.7,12.85-4,19.78-1.26,6.24,2.46,12.66,2,18.83-.74,6.34-2.79,12.73-5.47,19-8.46,5-2.38,10-4.76,13.62-9.24,1.68-2.07,4.1-1.7,6.22-.69,7.25,3.44,11.94,8.87,12,17.21,0,6.73-.22,13.49-.75,20.21a102.41,102.41,0,0,1-5.24,24.72c-4.06,12-8.4,24-11.7,36.2-2.54,9.41-3.82,19.17-5.39,28.82-2.56,15.6,1.1,30.43,6.13,45a10.23,10.23,0,0,0,1,1.73,3.59,3.59,0,0,0,.62-1.89Z"/><path d="M329.77,407.48c-3.35,1.64-8.63,7.18-5.44,9.21.82.52,1.73.9,2.55,1.41a20.6,20.6,0,0,1,3.28,2.28c2.91,2.84,11-1.06,13.67-4.18,2.89-3.37,5.61-6.88,8.31-10.4a13.43,13.43,0,0,0,1.29-2.88l-3.27-1.2A60.17,60.17,0,0,0,329.77,407.48Z"/><path d="M333,471.53c-.66-1.23-3.76-1.49-6.09-1.83-3.7-.55-8.07.31-12.06,1.74A150.34,150.34,0,0,0,288,484.06a20.52,20.52,0,0,0-6.83,6.16c-.15.23.08.46.13.68a7.49,7.49,0,0,0,1.33-.38c1.55-.77,3.05-1.58,4.58-2.37a115.92,115.92,0,0,1,20-8.32A74.22,74.22,0,0,1,318,477.27C326,476.17,333.54,472.46,333,471.53ZM303.8,506.4c-9.27,2-18.9,1.45-28.35,2.27a36.29,36.29,0,0,0-8.38,1.5c-3.5,1.19-4.08,3.55-2.07,6.33,2.64,3.65,2.31,4.66-2,6.08l-.68.25c-3.38,1.19-6.74,2.41-10.13,3.55a121.38,121.38,0,0,1-12.09,3.88c-3.42.76-5.83-1.27-6.72-4.65a27.59,27.59,0,0,0-1.52-4.66,2.88,2.88,0,0,1,1.19-4.18c2.29-1.49,4.62-2.93,6.84-4.52a18.47,18.47,0,0,0,6.14-6.87,6.45,6.45,0,0,0-.24-6.61c-1.79-2.82-3.63-5.62-5.65-8.28-.69-.91-2-1.36-3-2-.26,1.2,4.44,10.67,4.26,11.89s-3.64,4.31-4.22,5a91.11,91.11,0,0,1-7.21,7.88c-1,1-3.12-9.57-3.29-11-.26-2.11-.52-4.23-.59-6.35a11.57,11.57,0,0,1,4-9.09c2.62-2.44,5.45-4.66,8.29-6.85,5.34-4.15,10.32-8.57,14.17-14.28a80.44,80.44,0,0,1,26.68-25c6.77-3.9,13.91-7.18,21-10.53,7.29-3.45,6.94-4.59,14.87-6.51a11.14,11.14,0,0,0,3.28-1.53c.65-.42,1.52-1.26,1.46-1.82a2.56,2.56,0,0,0-1.73-1.59c-2.3-.47-5.37.14-7.69-.24-1.14-.19-2.83-.33-3.19-1s.48-2.18.81-3.31a.49.49,0,0,1,.1-.15c2.84-4.52,14.63-11.78,18.79-15.12,9.25-7.44,19.52-11.39,31.61-9.88a36.87,36.87,0,0,0,8.9-.24c1.43-.17,2.76-1.2,4.19-1.87-.36-.57-.42-.77-.56-.87a3.82,3.82,0,0,0-.94-.54c-4.35-1.65-7.45-5-10.62-8.16-2.54-2.54-2.31-5.2.44-7.53a31.34,31.34,0,0,1,3.06-2.3c10.14-6.59,20.24-13.24,29.3-21.33a31,31,0,0,1,2.87-2l.54.44a43.34,43.34,0,0,1-2.13,4c-2.43,3.71-5.07,7.29-7.42,11.05a35.34,35.34,0,0,0-3.25,6.69c-.8,2.21.1,3.48,2.39,4,1.95.45,3.91.88,5.89,1.16a5.76,5.76,0,0,0,5.76-2.34A29.12,29.12,0,0,0,402,357.27c.61-2.71,1-5.46,1.57-8.21a71.71,71.71,0,0,1,18.37.49,175.56,175.56,0,0,1,60.09,20.2,216.45,216.45,0,0,1,34.22,22.84,176.1,176.1,0,0,1,27.05,27.8A183,183,0,0,1,563.21,452a137.06,137.06,0,0,1,12.4,41.32,173.49,173.49,0,0,1,1.68,35.85c-.24,3.68-.46,7.5-1.59,11-2.88,8.79-9,14.8-17.33,18.72-5.81,2.75-11.85,3.8-18.08,2-3.68-1.09-7.19-2.75-10.44-4a2.38,2.38,0,0,0,.49.52c3.29,2.69,6.47,5.55,9.93,8A24.72,24.72,0,0,0,562,569.11c10.49-2.88,18-9.64,23.35-18.87,5-8.64,6.74-18.34,8-28a117.76,117.76,0,0,0-3.46-47.34c-4.15-15-10.85-28.85-18.95-42.06a180.54,180.54,0,0,0-20.83-28.08,144,144,0,0,0-20.5-18.85q-11.45-8.42-23.52-15.95a177.88,177.88,0,0,0-48.83-21.58,195.55,195.55,0,0,0-41.49-6.65l-9.85-.45c.51-1.31,1-2.48,1.41-3.65,1.35-3.57,2.76-7.12,4-10.73a7.8,7.8,0,0,0,.15-3.6c-.3-1.85-1.54-2.38-3-1.23a24.8,24.8,0,0,0-4.17,4,58.39,58.39,0,0,1-11.91,11.22c-5.4,3.84-10.9,7.54-16.38,11.26-2.55,1.73-5.17,3.37-7.65,5a1.74,1.74,0,0,1-.35-.09l-.56-.47a24,24,0,0,0-21.45-6c-6.58,1.21-11.55,2.86-15.6,7.1L327,352.77a4,4,0,0,0,2.21-1.88c3.24-4.62,7.35-8.08,13.08-9.21,2.86-.56,5.71-1.16,8.56-1.76,2.57-.55,5.14-1.13,7.35-1.62-1-3.78-1.88-7.23-2.78-10.68l.52-.32c7,5,14.19,4.7,21.55,1.19-2.77-10.89-1.85-25.14,2-29.38a20.76,20.76,0,0,0,1.72,13.95c2.35,4.46,5.77,7.58,10.89,7.8a32.66,32.66,0,0,1,.35-4.58c.49-2.25,1.2-4.45,1.89-6.66,1-3.1,2-6.19,3-9.29l.49-.07c.06,6.38,2.57,10.82,9.21,12.15a16.86,16.86,0,0,1,.23-1.89,12.7,12.7,0,0,1,.6-1.9c2.23-5.73,6.66-9.66,11.22-13.4A165.44,165.44,0,0,1,443.27,279c5.39-3,11-5.44,17.23-6.07,5.2-.52,10.4-1.16,15.61-1.47a118.11,118.11,0,0,1,31.23,2c3,.62,5.88,1.73,9.07,2.7-1.37-.84-2.53-1.56-3.7-2.26a10.18,10.18,0,0,0-1.14-.58c-12.7-5.62-25.55-10.67-39.6-11.82-7.44-.6-14.94-1-22.15.9-14.76,4-26.46,12.84-35.92,24.63-2.95,3.68-5.08,8-7.46,11.86-.24-4.57-.17-9.44,2.71-13.87-5.21,2.33-11.19,2.47-15.49,6.64a20.65,20.65,0,0,1,7-11.08c-4.19,1.13-7.78,2.2-11.43,3.05A27,27,0,0,0,372.2,295.3c-4.68,7.06-6.12,14.79-3.18,22.92a56.09,56.09,0,0,0,3.81,7.23c-4.43-1.8-9.19-3.58-13.82-5.66a6.58,6.58,0,0,1-4-6.44c0-1.93.32-3.85.48-5.71-1.81,2.27-3.8,4.48-5.44,6.93a19.63,19.63,0,0,0-2.66,5.72,16.78,16.78,0,0,0,1.88,13.56l-2-.31c-6.86-1.12-13.11.28-17.9,5.44-5.34,5.73-7.19,6.93-6.76,12.18L178.56,298a2,2,0,0,0-1.75,3.58l141.74,88.32-5.5,4.77c-12.52,10.8-24.91,21.75-37.43,32.55A253.61,253.61,0,0,0,251,452.1c-4.41,5-9,9.92-13.75,14.58-4.57,4.44-9.52,8.5-14.31,12.71s-8.53,9.15-8.86,15.77a148,148,0,0,0,.15,15.48c.24,4.47,2.14,8.76,1.58,13.35-.28,2.29-.34,4.61-.66,6.9-1,7,1.91,12.15,7.5,16.05a5.83,5.83,0,0,0,6.37.57,2.18,2.18,0,0,1,2.75.29c4,3.13,8.34,5,13.51,2.67,2.14-.93,4.39-.55,6.59.16s4.31,1.3,6.48,1.85c6,1.52,9.6.1,12.51-5.26a78.92,78.92,0,0,1,10-13.88,27.23,27.23,0,0,1,13.27-8.57,365.49,365.49,0,0,0,38.55-13.83c6.43-2.7,12.85-4,19.78-1.26,6.24,2.46,12.66,2,18.83-.74,6.34-2.79,12.73-5.47,19-8.46,5-2.38,10-4.76,13.62-9.24,1.68-2.07,4.1-1.7,6.22-.69,7.25,3.44,11.94,8.87,12,17.21,0,6.73-.22,13.49-.75,20.21a102.41,102.41,0,0,1-5.24,24.72c-4.06,12-8.4,24-11.7,36.2-2.54,9.41-3.82,19.17-5.39,28.82-2.56,15.6,1.1,30.43,6.13,45a10.23,10.23,0,0,0,1,1.73,3.59,3.59,0,0,0,.62-1.89c.15-3.28.27-6.56.41-9.84.68-16.38,2.26-32.63,6.71-48.48,5.31-18.9,11.73-37.42,18.66-55.77,4.37-11.55,8.44-23.18,9.88-35.53a52.76,52.76,0,0,0-4.83-29.77c-4.35-9-10.24-16.93-15.94-25a49.77,49.77,0,0,1-4.83-8.32c-.65-1.47-2.89-16.44-2.33-17.9,2.95-7.73,15.94,3.17,21.16,9.6a78.62,78.62,0,0,1,7.75,12.27c8.24,15.23,11.75,31.76,12.31,48.88s-1.1,33.9-3.84,50.69c-.69,4.22-1.32,8.46-2,12.68a2.83,2.83,0,0,0,1.09-1.66c2.41-9,5-17.89,7.15-26.91a204.54,204.54,0,0,0,5.79-40,85.7,85.7,0,0,0-5.16-33.45A154.84,154.84,0,0,0,445.41,437a65,65,0,0,0-8.82-11.78c-5.65-5.76-11.84-11-17.84-16.41-6.34-5.71-12.51-11.54-17-18.91a18.19,18.19,0,0,0-2.51-2.7l-.62.21a14.25,14.25,0,0,0-.33,2.56c.09,1.63.33,3.26.53,4.89Q400,405,401.27,415.11c.76,6.21,2.1,12.41,2.19,18.62.11,8-.73,16-1.26,24-.44,6.69-1.16,13.35-3.42,19.7-2.4,6.75-6.58,11.93-14,13.21s-14.93,2.13-22.41,3a114.07,114.07,0,0,1-12.93.82C330.87,494.34,320.68,502.81,303.8,506.4Zm60.05-150.63c.14,0,.26.19.51.39-1.86,1.21-3.67,2.32-5.42,3.5s-3.28,2.21-4.94,3.31a1.92,1.92,0,0,0-.74-.49l-16-5.9C346.06,354.76,354.94,355,363.85,355.77ZM346.2,366.94l-8.58,5.66-71.3-35.06ZM262,538.46a6.05,6.05,0,0,1-10,2.25,34.63,34.63,0,0,1-2.28-2.9c3.18-1.28,5.92-2.57,8.78-3.44a4,4,0,0,1,3.42.74C262.5,535.72,262.33,537.42,262,538.46Z"/><path d="M518.62,428.16c6,11,12,22.12,17.5,33.39a106.43,106.43,0,0,1,6.43,17.2c1.72,5.92,2.58,12.1,4,18.13,2.24,9.69,4.28,19.45,7,29,1.88,6.56,4.75,12.84,7.32,19.18.48,1.2,1.62,2.13,2.46,3.19l.52-.29c-.2-1-.33-2.1-.62-3.11-3.5-12.42-6.38-24.91-7.18-37.87-.52-8.29-1.67-16.58-3-24.79A152.83,152.83,0,0,0,542.19,446c-3.39-7.83-7.3-15.4-12.74-22-6.34-7.75-14-14.19-21.47-20.76-5.11-4.48-10.2-9-15.36-13.43a39.87,39.87,0,0,0-4.82-3.55c-.52-.32-1.4-.06-2.12-.07.19.77.13,1.75.6,2.26,4.58,4.95,9.34,9.73,13.85,14.74C507.09,410.88,513.6,419,518.62,428.16Z"/><path d="M528.42,561.22s31.86,19.37,12.14,51.86-66.91,36.52-74.95,56.24c-5.68,13.93,6.58,35,24.84,43.82-42.37-2.19-68.08-31.41-53-57.7s72.74-20.91,87.35-43.82S535.73,576.56,528.42,561.22Z"/><path d="M532.74,360.26c12.37,4.73,53.37,7.7,59.68,8.37,43.51,4.61,53.28,36.36,60.05,56.24-.06-12.53.45-35.66-22.39-54-24.82-20-92.57-14.29-95.87-27.74-6.33-25.8,64-32,68.62-.68a30.27,30.27,0,0,0-10.46-31.12c-11-8.48-26.2-8.18-40.08-7.5l-59.56,2.95c-4.55.23-9.18.44-13.61-.65s-8.68-3.73-10.66-7.84c-3-6.26.37-14.19,6.07-18.15s13.05-4.69,20-4.3,13.81,1.8,20.75,1.6c-34.1-5.85-74.49-7.31-65.24,25.78,7.71,27.59,45.26,12.17,71.54,9.25s57.79-1.62,46.12-.6C517.82,316.23,501.76,348.41,532.74,360.26Z"/><path d="M501.16,698.53c2,5.92,32.86,3.65,45.28-47.23,5.42-22.22,27.75-43.58,36.27-40.41,11.44,4.24,10.23,42.84-15.09,64.51,21.91-12.66,34.57-28.24,38.25-105.44.67-14.26,4.2-46.57,18-45,14.15,1.59,21.67,33.35-.55,60.5,20.47-16.45,32.93-40.28,23.8-59.29-4.56-9.48-56.24-60.62-33.47-73.15,23.17-12.76,50.63,25.68,45.52,66.7,3.64-14.53,9.49-45-6.53-64.46-21.92-26.58-63.51-34.07-83.67-62,0,0-27.15-13.15-8.16,4.62s39.44,29.95,45.29,38c-6.58,9.74-22.4,21.18-2.44,48s26.05,33.6,26.05,33.6c-13.14-3.17-34.15-15.81-32.38,51.37a512.08,512.08,0,0,1-1.7,53.8C592,596,587.83,594.09,574.44,596S546,626,540.11,650.57,520.63,705.35,501.16,698.53Z"/><polygon class="cls-14" points="721.49 739.5 777.24 713.63 758.88 654.98 811.69 697.64 867.43 671.78 844.32 724.01 897.13 766.68 830.04 756.29 806.93 808.53 788.58 749.88 721.49 739.5"/></g></g></svg>